<svg width="512" height="512" viewBox="0 0 512 512" fill="none" xmlns="http://www.w3.org/2000/svg">
<g clip-path="url(#clip0_45_6)">
<path d="M346.7 6C337.6 17 320 42.3 320 72C320 112 335.3 127.3 360 152C384.7 176.7 400 192 440 192C469.7 192 495 174.4 506 165.3C510 162 512 157.1 512 152C512 146.9 510 142 506 138.8C494.6 129.7 467.7 112 432 112C400 112 392 120 392 120C392 120 400 112 400 80C400 44.3 382.3 17.4 373.2 6C370 2 365.1 0 360 0C354.9 0 350 2 346.7 6ZM244.6 136C204.6 136 167.5 154.1 142.9 184.2L203.4 244.7C209.6 250.9 209.6 261.1 203.4 267.3C197.2 273.5 187 273.5 180.8 267.3L125.5 212V212.1L2.20003 477.9C-1.99997 487 -0.0999713 497.8 7.00003 505C14.1 512.2 24.9 514 34.1 509.8L168.8 447.4L116.7 395.3C110.5 389.1 110.5 378.9 116.7 372.7C122.9 366.5 133.1 366.5 139.3 372.7L199.7 433L299.9 386.6C346.3 365.1 376.1 318.6 376.1 267.4C376 194.8 317.2 136 244.6 136Z" fill="#FD7949"/>
</g>
<defs>
<clipPath id="clip0_45_6">
<rect width="512" height="512" fill="white"/>
</clipPath>
</defs>
</svg>
