<svg width="448" height="512" viewBox="0 0 448 512" fill="none" xmlns="http://www.w3.org/2000/svg">
<path d="M448 96C448 60.7 419.3 32 384 32C377.4 32 371 33 365 34.9C342.5 41.9 316.9 49.8 294 43.9C218.8 24.8 137.6 54.9 80.3 112.2C23 169.5 -7.2 250.8 11.9 326C17.7 348.9 9.9 374.4 2.9 397C1 403 0 409.4 0 416C0 451.3 28.7 480 64 480C70.6 480 77 479 83.1 477.1C105.6 470.1 131.2 462.2 154.1 468.1C229.3 487.2 310.5 457.1 367.8 399.8C425.1 342.5 455.3 261.3 436.1 186.1C430.3 163.2 438.1 137.7 445.1 115.1C447 109.1 448 102.7 448 96ZM212.5 127.4C157.9 143.4 111.4 189.9 95.4 244.5C92.9 253 84 257.8 75.5 255.4C67 253 62.2 244 64.6 235.5C83.7 170.4 138.3 115.7 203.5 96.6C212 94.1 220.9 99 223.4 107.5C225.9 116 221 124.9 212.5 127.4Z" fill="#EEDF5B"/>
</svg>
