<svg width="640" height="512" viewBox="0 0 640 512" fill="none" xmlns="http://www.w3.org/2000/svg">
<path d="M80 48C80 35.2696 85.0572 23.0606 94.0589 14.0589C103.061 5.05713 115.27 0 128 0C140.73 0 152.939 5.05713 161.941 14.0589C170.943 23.0606 176 35.2696 176 48C176 60.7304 170.943 72.9394 161.941 81.9411C152.939 90.9429 140.73 96 128 96C115.27 96 103.061 90.9429 94.0589 81.9411C85.0572 72.9394 80 60.7304 80 48ZM144 241.7V306.8L195 357.8C202.1 364.9 206.8 374 208.4 383.9L223.6 474.8C226.5 492.2 214.7 508.7 197.3 511.6C179.9 514.5 163.4 502.7 160.5 485.3L146.2 399.4L66.8 320C54.8 308 48 291.7 48 274.7V186.6C48 154.2 74.2 128 106.6 128C130.7 128 153.1 140 166.5 160L213.9 231.1L224 236.1V160C224 142.3 238.3 128 256 128H384C401.7 128 416 142.3 416 160V236.2L426.1 231.2L473.5 160C486.8 140 509.3 128 533.4 128C565.8 128 592 154.2 592 186.6V274.7C592 291.7 585.3 308 573.3 320L493.9 399.4L479.6 485.3C476.7 502.7 460.2 514.5 442.8 511.6C425.4 508.7 413.6 492.2 416.5 474.8L431.7 383.9C433.3 374 438 364.9 445.1 357.8L496.1 306.8V241.7L477.1 270.2C472.5 277.2 466.1 282.8 458.6 286.5L399 316.3C396.6 317.6 394.1 318.5 391.4 319.1C388.8 319.7 386.1 320 383.5 319.9H256.7C254.2 320 251.7 319.7 249.2 319.2C246.3 318.6 243.6 317.6 241.1 316.2L181.6 286.4C174.1 282.7 167.8 277 163.1 270.1L144.1 241.6L144 241.7ZM2.30002 468.1L50.1 348.6L99.3 397.8L61.7 491.8C55.1 508.2 36.5 516.2 20.1 509.6C3.70002 503 -4.29998 484.5 2.30002 468.1ZM512 0C524.73 0 536.939 5.05713 545.941 14.0589C554.943 23.0606 560 35.2696 560 48C560 60.7304 554.943 72.9394 545.941 81.9411C536.939 90.9429 524.73 96 512 96C499.27 96 487.061 90.9429 478.059 81.9411C469.057 72.9394 464 60.7304 464 48C464 35.2696 469.057 23.0606 478.059 14.0589C487.061 5.05713 499.27 0 512 0ZM589.9 348.6L637.7 468.1C644.3 484.5 636.3 503.1 619.9 509.7C603.5 516.3 584.9 508.3 578.3 491.9L540.7 397.9L589.9 348.7V348.6Z" fill="url(#paint0_linear_47_13)"/>
<defs>
<linearGradient id="paint0_linear_47_13" x1="320" y1="0" x2="320" y2="512.038" gradientUnits="userSpaceOnUse">
<stop stop-color="#77767D"/>
<stop offset="1" stop-color="#3E678C" stop-opacity="0.69"/>
</linearGradient>
</defs>
</svg>
