<svg width="512" height="449" viewBox="0 0 512 449" fill="none" xmlns="http://www.w3.org/2000/svg">
<path d="M272 65C193.4 65 126.9 116.5 104.3 187.5C137.9 170.5 175.8 161 216 161H304C312.8 161 320 168.2 320 177C320 185.8 312.8 193 304 193H288H216C199.4 193 183.3 194.9 167.8 198.4C141.9 204.3 117.8 214.8 96.4 229.1C38.3 267.8 0 333.9 0 409V425C0 438.3 10.7 449 24 449C37.3 449 48 438.3 48 425V409C48 360.3 68.7 316.5 101.8 285.8C121.6 361.3 190.3 417 272 417H273C405.1 416.3 512 286.1 512 125.6C512 83 504.5 42.5 490.9 5.99996C488.3 -0.900038 478.2 -0.600037 474.7 5.89996C455.9 41.1 418.7 65 376 65H272Z" fill="#2B665B"/>
</svg>
